<svg xmlns="http://www.w3.org/2000/svg" width="166" height="39" viewBox="0 0 166 39"><defs><clipPath id="6202a"><path d="M0 .25h38.764v38.746H0z"/></clipPath><clipPath id="6202b"><path d="M150.65 9.08h14.732v18.862H150.65z"/></clipPath></defs><g><g><g><g/><g clip-path="url(#6202a)"><path fill="#00bf99" d="M17.622 13.814l.33-.116c.13-.045.257-.071.432-.11l.082-.018c.061-.014.124-.029.182-.036a.925.925 0 0 0 .17-.033c.169-.02.339-.032.49-.041l.592.002.1.005c.157.007.315.014.49.042l.07.013c.06.003.12.012.192.03a7.13 7.13 0 0 1 .71.183l.309.11c.14.055.28.118.42.185a5.628 5.628 0 0 1 .804.472l.094.066.143.103.29.241c.366.322.675.663.943 1.042l.12.175c.062.096.124.19.19.301a9.645 9.645 0 0 1 .297.595c.039.096.077.189.11.28.016.053.035.107.068.202.013.036.024.073.029.078.017.068.035.13.054.195l.02.078a.32.32 0 0 0 .021.074l.135.743c0 .019.001.087.01.114l.009.11c.004.062.008.126.013.16 0 .028 0 .063.002.106.005.076.006.148.002.23 0 .083 0 .155-.004.257l-.01.056a7.702 7.702 0 0 1-.035.384l-.005.051a.515.515 0 0 0-.012.094l-.013.051c-.015.107-.037.216-.06.334l-.017.056a.686.686 0 0 1-.024.091l-.023.1a9.191 9.191 0 0 1-.08.285l-.063.168a5.364 5.364 0 0 1-.242.579l-8.334 14.495a1.744 1.744 0 0 0 1.513 2.6 1.75 1.75 0 0 0 1.5-.87l7.125-12.389 1.53 8.614a1.74 1.74 0 0 0 1.717 1.433c.104 0 .206-.012.297-.03a1.72 1.72 0 0 0 1.12-.717c.266-.38.367-.84.285-1.295L29.205 19.67l6.71 5.617c.71.584 1.858.485 2.445-.226.298-.355.439-.805.397-1.266-.041-.46-.26-.879-.615-1.174l-10.964-9.17 8.756-.013a1.743 1.743 0 0 0 1.726-1.74 1.745 1.745 0 0 0-1.74-1.734l-14.291.023 6.696-5.636a1.737 1.737 0 0 0-2.24-2.654L15.155 10.9l1.506-8.618A1.724 1.724 0 0 0 16.368.99a1.736 1.736 0 0 0-3.133.698L10.782 15.77 6.394 8.2a1.738 1.738 0 0 0-2.376-.632 1.74 1.74 0 0 0-.63 2.37l7.168 12.365-8.227-2.978a1.745 1.745 0 0 0-.597-.104 1.747 1.747 0 0 0-1.628 1.15c-.158.44-.136.911.063 1.33.197.417.546.733.979.885L14.59 27.46l-8.218 3.004a1.715 1.715 0 0 0-.979.894 1.72 1.72 0 0 0-.056 1.326c.25.687.91 1.147 1.64 1.144a1.93 1.93 0 0 0 .588-.103l12.002-4.394 2.693-4.679-.971.35c-.1.037-.209.06-.316.086l-.136.018-.02.011a1.606 1.606 0 0 1-.162.034l-.1.02c-.024.005-.041.006-.082.01-.219.033-.441.05-.71.063h-.128a5.36 5.36 0 0 1-.838-.067l-.138-.024c-.03-.005-.061-.01-.101-.019a6.127 6.127 0 0 1-.571-.143l-.597-.21-.057-.024a3.402 3.402 0 0 1-.363-.167l-.149-.074a.642.642 0 0 1-.112-.063 6.426 6.426 0 0 1-.667-.444l-.208-.17-.004.004a.294.294 0 0 0-.066-.065c-.047-.042-.097-.088-.111-.094a.72.72 0 0 0-.068-.069l-.042-.04a3.68 3.68 0 0 1-.319-.337l-.05-.057a3.756 3.756 0 0 1-.189-.231l-.033-.043c-.013-.018-.028-.039-.02-.024a6.516 6.516 0 0 1-.189-.282l-.336-.575a4.105 4.105 0 0 1-.174-.355l-.065-.15a.653.653 0 0 1-.035-.079l-.016-.06a3.24 3.24 0 0 1-.106-.317l-.041-.13-.002-.002a1.34 1.34 0 0 1-.023-.087l-.013-.052-.028-.121c-.01-.044-.022-.085-.036-.158l-.042-.21a.653.653 0 0 0-.013-.1 5.304 5.304 0 0 1-.024-.188l-.007-.096a6.724 6.724 0 0 1-.02-.266l-.012-.18c0-.133-.002-.27.008-.408l.013-.198c.007-.055.013-.11.012-.135l.142-.834.015-.052a1.22 1.22 0 0 0 .034-.123c.031-.096.06-.195.07-.254l.033-.065c.066-.199.15-.4.266-.632l.031-.064c.028-.059.055-.115.098-.186.095-.183.207-.355.344-.557.066-.091.132-.184.234-.306l.039-.046c.028-.037.06-.072.092-.108l.052-.059c.13-.149.277-.296.41-.424l.432-.367c.026-.017.049-.035.08-.06.043-.033.086-.06.151-.103.035-.027.078-.053.12-.082l.05-.03c.056-.039.114-.075.174-.11l.14-.082c.059-.032.122-.066.18-.093l.054-.03c.036-.02.072-.04.134-.066.125-.056.247-.111.392-.167z"/></g></g><g><path fill="#273036" d="M62.786 25.787A1.91 1.91 0 0 1 62 24.256c0-1.057.873-1.878 1.969-1.878.545 0 .929.187 1.204.368C66.62 23.78 68.2 24.41 70.06 24.41c1.715 0 2.76-.663 2.76-1.742v-.053c0-1.03-.659-1.553-3.856-2.346-3.85-.946-6.335-1.98-6.335-5.648v-.048C62.628 11.22 65.418 9 69.32 9c2.323 0 4.345.582 6.062 1.643.468.26.93.814.93 1.61 0 1.051-.878 1.87-1.97 1.87a2.1 2.1 0 0 1-1.058-.289c-1.396-.794-2.71-1.244-4.018-1.244-1.618 0-2.458.714-2.458 1.613v.047c0 1.215.818 1.611 4.12 2.428 3.881.976 6.071 2.326 6.071 5.55v.051C77 25.944 74.099 28 69.977 28c-2.51 0-5.056-.74-7.191-2.213"/></g><g><path fill="#273036" d="M79 11.074C79 9.913 79.916 9 81.086 9h5.656C91.27 9 94 11.664 94 15.517v.053c0 4.356-3.406 6.613-7.66 6.613H83.17v3.748A2.062 2.062 0 0 1 81.086 28 2.058 2.058 0 0 1 79 25.931zm7.473 7.426c2.09 0 3.304-1.24 3.304-2.848V15.6c0-1.865-1.302-2.86-3.38-2.86h-3.226v5.76z"/></g><g><path fill="#273036" d="M95 18.548v-.043C95 13.28 99.229 9 105.033 9c5.804 0 9.967 4.218 9.967 9.452v.053c0 5.214-4.218 9.495-10.026 9.495zm15.675-.005V18.5c0-3.15-2.363-5.773-5.701-5.773-3.327 0-5.648 2.57-5.648 5.72v.053c0 3.144 2.369 5.765 5.707 5.765z"/></g><g><path fill="#273036" d="M117 11.057c0-1.152.936-2.057 2.107-2.057 1.174 0 2.111.905 2.111 2.057v6.27l7.76-7.524c.53-.499 1.044-.803 1.778-.803 1.177 0 1.942.88 1.942 1.89 0 .649-.302 1.132-.765 1.554l-5.388 4.908 5.882 7.204c.327.404.573.832.573 1.447 0 1.147-.904 1.997-2.134 1.997-.821 0-1.313-.392-1.778-.982l-5.471-6.989-2.399 2.182v3.738c0 1.146-.937 2.051-2.11 2.051-1.172 0-2.108-.905-2.108-2.051z"/></g><g><path fill="#273036" d="M135 25.912v-14.82C135 9.92 135.88 9 137 9h10.072c.986 0 1.79.842 1.79 1.87 0 1.04-.804 1.854-1.79 1.854h-8.096v3.853h6.926c.991 0 1.791.84 1.791 1.874 0 1.033-.8 1.838-1.791 1.838h-6.926v3.994h8.23c.99 0 1.794.842 1.794 1.877 0 1.028-.805 1.84-1.793 1.84h-10.208c-1.118 0-1.999-.914-1.999-2.088"/></g><g><g/><g clip-path="url(#6202b)"><path fill="#273036" d="M151.418 25.744c-.454-.317-.768-.894-.768-1.52 0-1.048.856-1.863 1.929-1.863.54 0 .912.185 1.183.364 1.42 1.027 2.976 1.654 4.81 1.654 1.684 0 2.709-.658 2.709-1.73v-.053c0-1.022-.646-1.54-3.782-2.328-3.796-.939-6.238-1.966-6.238-5.607v-.047c0-3.331 2.74-5.534 6.582-5.534 2.283 0 4.27.577 5.962 1.631.46.258.909.808.909 1.598 0 1.044-.858 1.858-1.931 1.858-.4 0-.728-.112-1.048-.288-1.366-.788-2.653-1.235-3.939-1.235-1.592 0-2.425.709-2.425 1.601v.046c0 1.207.808 1.6 4.054 2.411 3.82.97 5.957 2.31 5.957 5.509v.052c0 3.637-2.838 5.679-6.899 5.679-2.473 0-4.97-.735-7.065-2.198"/></g></g><g><path fill="#273036" d="M59 15.331c0 5.848-4.903 10.13-7.632 12.15-.029.022-.053.04-.073.053a1.997 1.997 0 0 1-1.282.466c-1.068 0-1.933-.814-1.933-1.816 0-.18.036-.35.09-.515.107-.338.333-.61.587-.855 1.202-1.151 3.536-2.756 4.733-4.602 0 0-1.2.839-2.807.839-3.263 0-5.683-2.707-5.683-5.72C45 12.013 47.8 9 51.825 9zm-4.072-.17c-.1-1.369-1.028-2.576-3.177-2.523-1.392.035-2.705 1.03-2.705 2.544 0 1.98 1.558 2.86 2.705 2.95 1.854.145 2.744-.433 2.744-.433z"/></g></g></g></svg>